<svg width="13" height="10" viewBox="0 0 13 10" fill="none" xmlns="http://www.w3.org/2000/svg">
<path d="M0 0.5H13V9.5H0V0.5ZM6.5 2.75C7.07464 2.75 7.62574 2.98705 8.03206 3.40901C8.43839 3.83097 8.66667 4.40326 8.66667 5C8.66667 5.59674 8.43839 6.16903 8.03206 6.59099C7.62574 7.01295 7.07464 7.25 6.5 7.25C5.92536 7.25 5.37426 7.01295 4.96794 6.59099C4.56161 6.16903 4.33333 5.59674 4.33333 5C4.33333 4.40326 4.56161 3.83097 4.96794 3.40901C5.37426 2.98705 5.92536 2.75 6.5 2.75ZM2.88889 2C2.88889 2.39782 2.73671 2.77936 2.46582 3.06066C2.19494 3.34196 1.82753 3.5 1.44444 3.5V6.5C1.82753 6.5 2.19494 6.65804 2.46582 6.93934C2.73671 7.22064 2.88889 7.60218 2.88889 8H10.1111C10.1111 7.60218 10.2633 7.22064 10.5342 6.93934C10.8051 6.65804 11.1725 6.5 11.5556 6.5V3.5C11.1725 3.5 10.8051 3.34196 10.5342 3.06066C10.2633 2.77936 10.1111 2.39782 10.1111 2H2.88889Z" fill="white"/>
</svg>
