<svg width="14" height="14" viewBox="0 0 14 14" fill="none" xmlns="http://www.w3.org/2000/svg">
<path d="M13.4831 7.94582C13.5447 8.99209 13.0589 9.99786 12.1898 10.6121L12.7167 11.6179C12.8741 11.9216 12.8946 12.2794 12.7578 12.5966C12.6278 12.9139 12.3609 13.1637 12.0324 13.2717L11.4919 13.4404C11.2668 13.5152 11.0238 13.5197 10.796 13.4533C10.5682 13.3868 10.3668 13.2527 10.2191 13.0692L8.76842 11.3816C8.15941 11.2804 7.58462 11.0239 7.09878 10.6391C6.75664 10.7404 6.4145 10.7944 6.07236 10.7944C5.47019 10.7944 4.86803 10.6121 4.36166 10.2611C3.99899 10.3691 3.62948 10.4164 3.25312 10.4096C2.71254 10.4164 2.1788 10.3084 1.67928 10.1059C1.19846 9.89423 0.787619 9.55356 0.493613 9.1227C0.199607 8.69184 0.0342762 8.18815 0.0164779 7.66907C-0.0382645 7.18306 0.0438491 6.6903 0.255976 6.2448C0.0575347 5.73854 0.0370063 5.18503 0.208076 4.67202C0.46126 4.03076 0.940256 3.4975 1.53558 3.16C1.93246 2.01923 3.04784 1.25647 4.2727 1.33747C5.36755 0.324954 7.04404 0.216953 8.26206 1.08772C8.54945 1.01347 8.85054 0.972964 9.15162 0.972964C10.0822 0.952714 10.965 1.35772 11.5466 2.07998C12.9425 2.43774 13.9416 3.66626 13.9963 5.09728C14.0305 5.84654 13.8253 6.5823 13.4078 7.21006C13.4557 7.45307 13.4831 7.69607 13.4831 7.94582ZM10.0617 6.99406C10.4518 7.04131 10.7597 7.33156 10.7597 7.71632C10.7597 7.89534 10.6876 8.06704 10.5593 8.19363C10.4309 8.32021 10.2569 8.39133 10.0754 8.39133H9.6443C9.42533 8.99884 9.04214 9.5321 8.53577 9.93711C8.70684 9.99786 8.88475 10.0316 9.06266 10.0789C12.573 10.0316 12.1625 7.91882 12.1625 7.88507C12.1443 7.42141 11.9402 6.98384 11.595 6.66864C11.2498 6.35344 10.7918 6.18641 10.3217 6.2043C10.1403 6.2043 9.96621 6.13318 9.83788 6.00659C9.70955 5.88 9.63746 5.70831 9.63746 5.52929C9.63746 5.35026 9.70955 5.17857 9.83788 5.05198C9.96621 4.92539 10.1403 4.85428 10.3217 4.85428C11.1634 4.87453 11.9709 5.18503 12.6004 5.73179C12.6346 5.53604 12.6551 5.33353 12.6551 5.13103C12.6141 4.29402 12.2309 3.56501 10.6913 3.42325C9.8359 1.42522 7.68042 2.53224 7.68042 3.15325C7.65989 3.3085 7.82412 3.63926 7.85149 3.65951C8.03297 3.65951 8.20702 3.73062 8.33535 3.85721C8.46367 3.9838 8.53577 4.15549 8.53577 4.33452C8.53577 4.70577 8.22784 5.00953 7.85149 5.00953C7.48882 4.99603 7.14668 4.86103 6.87297 4.63152C6.54451 4.84078 6.16816 4.96903 5.77812 5.00953C5.38808 5.04328 5.06647 4.77327 5.04594 4.40202C5.03333 4.31384 5.03913 4.22406 5.06297 4.13817C5.08682 4.05229 5.1282 3.97212 5.1846 3.90258C5.24099 3.83305 5.31119 3.77562 5.3909 3.73382C5.4706 3.69202 5.55813 3.66673 5.64811 3.65951C5.75759 3.64601 6.29133 3.56501 6.29133 3.13975C6.29133 2.69424 6.4624 2.26899 6.75664 1.93148C6.1271 1.76273 5.44966 1.98548 4.76538 2.80224C3.50631 2.60649 2.9931 2.77524 2.61674 4.09151C1.96668 4.40877 1.62454 4.63152 1.47399 5.30653C2.21302 5.15803 2.97257 5.21878 3.67738 5.47529C4.01952 5.60354 4.21112 5.98154 4.0811 6.34605C3.95109 6.69705 3.55421 6.87256 3.19838 6.74431C2.69886 6.5283 2.13775 6.5148 1.62454 6.7038C1.40557 6.88606 1.40557 7.26406 1.40557 7.56107C1.40557 8.06058 1.65875 8.52633 2.08985 8.79634C2.45252 8.97859 2.85624 9.07309 3.25997 9.06634C3.15732 8.89084 3.06837 8.70859 2.9931 8.51958C2.93923 8.34616 2.95564 8.15888 3.03887 7.99714C3.12211 7.8354 3.26569 7.71181 3.4394 7.65236C3.61312 7.59291 3.80344 7.60223 3.97034 7.67836C4.13724 7.75449 4.2677 7.8915 4.33429 8.06058C4.608 8.83009 5.30596 9.3566 6.1271 9.44435C7.06457 9.3971 7.89939 8.85034 8.30996 8.00658C8.46734 7.07506 9.22689 6.99406 10.0617 6.99406ZM11.4303 12.0364L11.006 11.1589L10.5202 11.2669L11.2045 12.1106L11.4303 12.0364ZM8.24837 6.22455C8.25432 6.05211 8.1931 5.88397 8.07729 5.75467C7.96149 5.62536 7.79988 5.54471 7.62568 5.52929C7.13984 5.50229 6.66768 5.66429 6.30501 5.98154C5.91497 6.37305 5.70969 6.91306 5.73022 7.45982C5.73022 7.63884 5.80231 7.81053 5.93064 7.93712C6.05897 8.06371 6.23302 8.13483 6.4145 8.13483C6.80454 8.13483 7.09878 7.83107 7.09878 7.45982C7.09878 7.27756 7.14668 7.09531 7.25616 6.94681C7.33828 6.87931 7.44092 6.84556 7.5504 6.84556C7.92676 6.86581 8.24837 6.58905 8.24837 6.22455Z" fill="white"/>
</svg>
