<svg width="11" height="14" viewBox="0 0 11 14" fill="none" xmlns="http://www.w3.org/2000/svg">
<path d="M3 0.5C3.35362 0.5 3.69276 0.636964 3.94281 0.880761C4.19286 1.12456 4.33333 1.45522 4.33333 1.8C4.33333 2.14478 4.19286 2.47544 3.94281 2.71924C3.69276 2.96304 3.35362 3.1 3 3.1C2.64638 3.1 2.30724 2.96304 2.05719 2.71924C1.80714 2.47544 1.66667 2.14478 1.66667 1.8C1.66667 1.45522 1.80714 1.12456 2.05719 0.880761C2.30724 0.636964 2.64638 0.5 3 0.5ZM2 13.5V9.6H0L1.73333 4.66C1.93333 4.14 2.4 3.75 3 3.75C3.6 3.75 4.13333 4.14 4.26667 4.66L6 9.6H4V13.5H2ZM7.66667 7C7.66667 6.65522 7.80714 6.32456 8.05719 6.08076C8.30724 5.83696 8.64638 5.7 9 5.7C9.35362 5.7 9.69276 5.83696 9.94281 6.08076C10.1929 6.32456 10.3333 6.65522 10.3333 7C10.3333 7.34478 10.1929 7.67544 9.94281 7.91924C9.69276 8.16304 9.35362 8.3 9 8.3C8.64638 8.3 8.30724 8.16304 8.05719 7.91924C7.80714 7.67544 7.66667 7.34478 7.66667 7ZM7 8.95H11V11.55H10V13.5H8V11.55H7V8.95Z" fill="white"/>
</svg>
