<svg width="10" height="12" viewBox="0 0 10 12" fill="none" xmlns="http://www.w3.org/2000/svg">
<path d="M0 6.85714C0 8.22111 0.526784 9.52922 1.46447 10.4937C2.40215 11.4582 3.67392 12 5 12C5 9.14286 2.76111 6.85714 0 6.85714ZM5 2.57143C5.36836 2.57143 5.72163 2.72194 5.98209 2.98985C6.24256 3.25776 6.38889 3.62112 6.38889 4C6.38889 4.37888 6.24256 4.74224 5.98209 5.01015C5.72163 5.27806 5.36836 5.42857 5 5.42857C4.63164 5.42857 4.27837 5.27806 4.01791 5.01015C3.75744 4.74224 3.61111 4.37888 3.61111 4C3.61111 3.62112 3.75744 3.25776 4.01791 2.98985C4.27837 2.72194 4.63164 2.57143 5 2.57143ZM1.44444 5.28571C1.44444 5.6646 1.59077 6.02796 1.85124 6.29587C2.11171 6.56378 2.46498 6.71429 2.83333 6.71429C3.12778 6.71429 3.4 6.61714 3.61111 6.46286V6.57143C3.61111 6.95031 3.75744 7.31367 4.01791 7.58158C4.27837 7.84949 4.63164 8 5 8C5.36836 8 5.72163 7.84949 5.98209 7.58158C6.24256 7.31367 6.38889 6.95031 6.38889 6.57143V6.46286C6.6 6.61714 6.87222 6.71429 7.16667 6.71429C7.53502 6.71429 7.88829 6.56378 8.14876 6.29587C8.40923 6.02796 8.55556 5.6646 8.55556 5.28571C8.55556 4.71429 8.22778 4.22857 7.76111 4C8.22778 3.77143 8.55556 3.28 8.55556 2.71429C8.55556 2.33541 8.40923 1.97204 8.14876 1.70413C7.88829 1.43622 7.53502 1.28571 7.16667 1.28571C6.87222 1.28571 6.6 1.37714 6.38889 1.53714V1.42857C6.38889 1.04969 6.24256 0.686328 5.98209 0.418419C5.72163 0.15051 5.36836 0 5 0C4.63164 0 4.27837 0.15051 4.01791 0.418419C3.75744 0.686328 3.61111 1.04969 3.61111 1.42857V1.53714C3.4 1.37714 3.12778 1.28571 2.83333 1.28571C2.46498 1.28571 2.11171 1.43622 1.85124 1.70413C1.59077 1.97204 1.44444 2.33541 1.44444 2.71429C1.44444 3.28 1.77222 3.77143 2.23889 4C1.77222 4.22857 1.44444 4.71429 1.44444 5.28571ZM5 12C6.32608 12 7.59785 11.4582 8.53553 10.4937C9.47322 9.52922 10 8.22111 10 6.85714C7.22222 6.85714 5 9.14286 5 12Z" fill="white"/>
</svg>
