<svg width="13" height="14" viewBox="0 0 13 14" fill="none" xmlns="http://www.w3.org/2000/svg">
<path d="M8.44813 7.91426C8.40801 8.27128 8.37307 8.58518 8.33812 8.89909C8.30059 9.24129 8.26824 9.58484 8.22164 9.92569C8.20352 10.055 8.25141 10.1008 8.35883 10.1453C8.95418 10.3905 9.55081 10.6357 10.1384 10.9011C10.4852 11.0587 10.8023 11.277 11.0651 11.568C11.2618 11.7862 11.399 12.0328 11.399 12.344C11.4003 12.7037 11.2618 12.9395 10.9395 13.0728C10.4814 13.2628 9.99732 13.2601 9.51716 13.2412C8.64744 13.2076 7.83855 12.9139 7.03613 12.5932C6.37478 12.3278 5.70567 12.0853 4.99902 11.9856C4.7557 11.9506 4.5098 11.9331 4.26519 11.9061C4.26131 11.9209 4.25613 11.9371 4.25225 11.9519C4.34414 11.9924 4.43344 12.0409 4.52792 12.0718C4.96278 12.2106 5.40023 12.3372 5.8338 12.4827C6.0797 12.5649 6.30748 12.6902 6.5055 12.9179C6.32819 12.9475 6.17806 12.9718 6.02793 12.996C5.45329 13.0917 4.87995 13.2035 4.30273 13.2776C3.66726 13.3585 3.02662 13.4326 2.39245 13.2588C2.23973 13.217 2.08571 13.1523 1.95241 13.0674C1.51755 12.7886 1.42566 12.2658 1.72851 11.8388C1.94853 11.5276 2.23973 11.2999 2.56458 11.1301C3.14569 10.8243 3.73844 10.5427 4.32732 10.2544C4.69229 10.0752 4.69746 10.0779 4.62887 9.66971C4.53698 9.1133 4.43991 8.55824 4.34026 7.97623C4.29755 8.02339 4.26778 8.04898 4.24449 8.08132C4.19789 8.14598 4.14871 8.20931 4.10989 8.27936C3.64008 9.14294 2.84672 9.57271 2.02489 9.95667C1.58614 10.1628 1.13446 10.3339 0.651711 10.3999C0.580529 10.4093 0.506758 10.4147 0.435575 10.4093C0.209086 10.3932 0.0524843 10.276 0.011069 10.0968C-0.0329347 9.91222 0.056367 9.67375 0.241441 9.57406C0.55335 9.40565 0.874318 9.25746 1.1927 9.09983C1.57579 8.90987 1.96147 8.72799 2.33938 8.52725C2.64611 8.36559 2.88166 8.11365 3.04733 7.80244C3.37347 7.19214 3.68408 6.57241 4.00894 5.96211C4.19013 5.62126 4.41532 5.31274 4.70394 5.05811C4.96925 4.82369 5.27598 4.67954 5.62154 4.67011C6.13276 4.65529 6.64657 4.64451 7.1565 4.67684C7.77255 4.71457 8.23976 5.05542 8.56332 5.59162C8.81311 6.00522 9.02924 6.44173 9.26479 6.86476C9.46151 7.21774 9.65047 7.57745 9.8679 7.91695C10.2536 8.52186 10.8528 8.81826 11.4766 9.07019C11.6979 9.15911 11.9244 9.23725 12.147 9.32347C12.2532 9.36524 12.3606 9.407 12.4615 9.46089C12.6828 9.57945 12.7747 9.79501 12.7087 10.024C12.6427 10.2558 12.4525 10.3986 12.2105 10.3608C11.9361 10.3164 11.6591 10.2625 11.3951 10.1749C10.7907 9.97688 10.229 9.68049 9.68024 9.35176C9.23502 9.08366 8.96712 8.65928 8.67851 8.24568C8.60991 8.14464 8.54132 8.04764 8.44813 7.91426Z" fill="white"/>
<path d="M6.38249 4.31173C5.38594 4.30364 4.61717 3.48183 4.62494 2.43368C4.63141 1.4704 5.39241 0.624334 6.40191 0.635112C7.40882 0.64589 8.16982 1.45693 8.16335 2.50373C8.15688 3.50338 7.35316 4.31981 6.38249 4.31173Z" fill="white"/>
</svg>
