<svg width="12" height="14" viewBox="0 0 12 14" fill="none" xmlns="http://www.w3.org/2000/svg">
<path d="M6 2.86364C5.334 2.86364 4.8 3.38955 4.8 4.04545C4.8 4.70136 5.334 5.22727 6 5.22727C6.666 5.22727 7.2 4.70136 7.2 4.04545C7.2 3.38955 6.666 2.86364 6 2.86364ZM12 0.5V3.45455H10.8V2.27273H1.2V3.45455H0V0.5H1.2V1.68182H10.8V0.5H12ZM7.8 6.56273V13.5H6.6V10.5455H5.4V13.5H4.2V6.56273C2.958 5.91864 2.1 4.63636 2.1 3.15909V2.86364H3.3V3.15909C3.3 4.63636 4.5 5.81818 6 5.81818C7.5 5.81818 8.7 4.63636 8.7 3.15909V2.86364H9.9V3.15909C9.9 4.63636 9.042 5.91864 7.8 6.56273Z" fill="white"/>
</svg>
